<svg xmlns="http://www.w3.org/2000/svg" width="32" height="32" viewBox="0 0 32 32" fill="none">
  <defs>
    <linearGradient id="keel" x1="0" y1="0" x2="32" y2="32" gradientUnits="userSpaceOnUse">
      <stop offset="0" stop-color="#80074D"/>
      <stop offset="0.45" stop-color="#B01273"/>
      <stop offset="1" stop-color="#FB41AA"/>
    </linearGradient>
  </defs>
  <rect width="32" height="32" rx="8" fill="url(#keel)"/>
  <!-- Lucide "book-open" — signals learning -->
  <g transform="translate(4 4)" stroke="#ffffff" stroke-width="1.75" stroke-linecap="round" stroke-linejoin="round" fill="none">
    <path d="M12 7v14"/>
    <path d="M3 18a1 1 0 0 1-1-1V4a1 1 0 0 1 1-1h5a4 4 0 0 1 4 4 4 4 0 0 1 4-4h5a1 1 0 0 1 1 1v13a1 1 0 0 1-1 1h-6a3 3 0 0 0-3 3 3 3 0 0 0-3-3z"/>
  </g>
</svg>
